<?xml version="1.0" encoding="utf-8"?>
<!-- Generator: Adobe Illustrator 22.0.1, SVG Export Plug-In . SVG Version: 6.00 Build 0)  -->
<svg version="1.1" id="Layer_1" xmlns="http://www.w3.org/2000/svg" xmlns:xlink="http://www.w3.org/1999/xlink" x="0px" y="0px"
	 viewBox="0 0 24 24" style="enable-background:new 0 0 24 24;" xml:space="preserve">
<style type="text/css">
	.st0{fill:#FFFFFF;}
</style>
<path class="st0" d="M7.4,5.3c0.6,0,1.2,0.1,1.8,0.2c0.5,0.1,1,0.3,1.4,0.5c0.4,0.2,0.7,0.6,0.9,1c0.2,0.4,0.3,1,0.3,1.6
	c0,0.7-0.1,1.3-0.5,1.7c-0.3,0.4-0.8,0.8-1.4,1.1c0.8,0.2,1.5,0.7,1.9,1.3c0.4,0.6,0.6,1.3,0.6,2.2c0,0.7-0.1,1.3-0.4,1.8
	c-0.2,0.5-0.6,0.9-1.1,1.2c-0.5,0.3-1,0.6-1.6,0.7C8.8,18.9,8.2,19,7.6,19H1V5.3H7.4z M7,10.9c0.5,0,1-0.1,1.3-0.4
	c0.3-0.2,0.5-0.7,0.5-1.2c0-0.3-0.1-0.6-0.1-0.8C8.6,8.3,8.5,8.1,8.3,8C8.1,7.9,7.9,7.8,7.6,7.7C7.4,7.7,7.1,7.7,6.9,7.7H4v3.2
	L7,10.9L7,10.9z M7.2,16.7c0.3,0,0.6,0,0.8-0.1c0.2,0,0.5-0.1,0.7-0.3c0.2-0.1,0.4-0.3,0.5-0.5c0.1-0.2,0.2-0.5,0.2-0.9
	c0-0.7-0.2-1.2-0.6-1.5c-0.4-0.3-0.9-0.4-1.6-0.4H4v3.8L7.2,16.7L7.2,16.7z M16.7,16.7c0.4,0.4,1,0.6,1.8,0.6c0.5,0,1-0.1,1.4-0.4
	c0.4-0.3,0.6-0.6,0.7-0.9H23c-0.4,1.2-1,2-1.8,2.6c-0.8,0.5-1.7,0.8-2.9,0.8c-0.7,0-1.4-0.1-2.1-0.4c-0.6-0.2-1.1-0.6-1.6-1.1
	c-0.5-0.5-0.8-1-1-1.6c-0.2-0.6-0.3-1.3-0.3-2.1c0-0.7,0.1-1.4,0.3-2.1c0.2-0.6,0.6-1.2,1-1.7c0.4-0.4,1-0.8,1.6-1.1
	C17,9,17.7,8.9,18.4,8.9c0.8,0,1.6,0.1,2.2,0.5c0.6,0.3,1.1,0.7,1.5,1.3c0.4,0.6,0.7,1.2,0.9,1.9c0.1,0.7,0.1,1.4,0.1,2.2H16
	C16,15.5,16.3,16.3,16.7,16.7L16.7,16.7z M19.8,11.5c-0.3-0.3-0.9-0.5-1.5-0.5c-0.4,0-0.8,0.1-1.1,0.2c-0.3,0.1-0.5,0.3-0.7,0.5
	c-0.2,0.2-0.3,0.4-0.3,0.7c0,0.2-0.1,0.4-0.1,0.6h4.4C20.4,12.3,20.1,11.8,19.8,11.5z M15.5,6.3H21v1.3h-5.5L15.5,6.3L15.5,6.3z"/>
</svg>
